<?xml version="1.0" encoding="UTF-8" standalone="no"?>
<svg
   viewBox="0 0 416 416"
   version="1.1"
   id="svg4"
   sodipodi:docname="plus.svg"
   width="416"
   height="416"
   inkscape:version="1.1.2 (b8e25be833, 2022-02-05)"
   xmlns:inkscape="http://www.inkscape.org/namespaces/inkscape"
   xmlns:sodipodi="http://sodipodi.sourceforge.net/DTD/sodipodi-0.dtd"
   xmlns="http://www.w3.org/2000/svg"
   xmlns:svg="http://www.w3.org/2000/svg">
  <defs
     id="defs8" />
  <sodipodi:namedview
     id="namedview6"
     pagecolor="#505050"
     bordercolor="#ffffff"
     borderopacity="1"
     inkscape:pageshadow="0"
     inkscape:pageopacity="0"
     inkscape:pagecheckerboard="1"
     showgrid="false"
     inkscape:zoom="1.7050781"
     inkscape:cx="207.90836"
     inkscape:cy="207.90836"
     inkscape:window-width="2560"
     inkscape:window-height="1361"
     inkscape:window-x="-9"
     inkscape:window-y="-9"
     inkscape:window-maximized="1"
     inkscape:current-layer="svg4" />
  <!--! Font Awesome Pro 6.1.2 by @fontawesome - https://fontawesome.com License - https://fontawesome.com/license (Commercial License) Copyright 2022 Fonticons, Inc. -->
  <path
     d="m 416,208 c 0,17.69 -14.33,32.01 -32,32.01 H 240 v 144 c 0,17.69 -14.33,31.99 -32,31.99 -17.67,0 -32,-14.3 -32,-31.99 v -144 H 32 C 14.33,240.01 0,225.69 0,208 0,190.31 14.33,176.01 32,176.01 h 144 v -144 C 176,14.32 190.33,0 208,0 c 17.67,0 32,14.32 32,32.01 v 144 H 384 C 401.7,176 416,190.3 416,208 Z"
     id="path2"
     style="fill:#feffff;fill-opacity:1" />
</svg>
